<?xml version="1.0" encoding="UTF-8" standalone="no"?>
<svg
   width="1087.4614"
   height="913.78888"
   version="1.1"
   id="svg34"
   sodipodi:docname="bargify-logo.svg"
   inkscape:version="1.3.2 (091e20e, 2023-11-25, custom)"
   xmlns:inkscape="http://www.inkscape.org/namespaces/inkscape"
   xmlns:sodipodi="http://sodipodi.sourceforge.net/DTD/sodipodi-0.dtd"
   xmlns="http://www.w3.org/2000/svg"
   xmlns:svg="http://www.w3.org/2000/svg">
  <defs
     id="defs34" />
  <sodipodi:namedview
     id="namedview34"
     pagecolor="#ffffff"
     bordercolor="#000000"
     borderopacity="0.25"
     inkscape:showpageshadow="2"
     inkscape:pageopacity="0.0"
     inkscape:pagecheckerboard="0"
     inkscape:deskcolor="#d1d1d1"
     inkscape:zoom="0.53318182"
     inkscape:cx="723.0179"
     inkscape:cy="974.3393"
     inkscape:window-width="2560"
     inkscape:window-height="1369"
     inkscape:window-x="1912"
     inkscape:window-y="-8"
     inkscape:window-maximized="1"
     inkscape:current-layer="svg34" />
  <g
     id="g34"
     style="display:inline"
     inkscape:export-filename="..\..\..\..\laragon\www\watcher\client\src\assets\images\dragify-logo-2.svg"
     inkscape:export-xdpi="96"
     inkscape:export-ydpi="96"
     transform="translate(-558.33399,-497.6391)">
    <path
       style="display:inline;fill:#faa567;fill-opacity:1;stroke:none"
       d="m 1088,499.438 c -26.75,3.011 -53.51,3.185 -80,9.227 -92.186,21.03 -176.232,69.442 -240.93,138.335 -18.49,19.69 -35.76,41.794 -49.653,65 -7.609,12.709 -15.031,33.561 -25.982,43.499 -9.575,8.69 -40.832,1.599 -53.435,2.718 -45.882,4.075 -90.389,43.284 -77.366,93.783 6.451,25.011 24.213,49.702 50.366,56.301 9.122,2.302 30.712,-1.274 37.398,4.521 4.743,4.109 3.669,14.494 4.828,20.178 2.765,13.562 12.296,24.092 25.774,27.303 27.614,6.58 87.767,-15.564 99.904,21.697 5.571,17.104 -6.912,36.02 -23.904,39.62 -23.159,4.91 -94.836,-13.75 -96.912,22.38 -0.806,14.03 5.346,28.72 9.138,42 10.297,36.07 26.106,70.73 45.163,103 90.804,153.75 264.972,239.18 441.611,219.68 146.81,-16.21 276.5,-109.12 346.59,-237.68 16.18,-29.68 29.27,-60.24 38.04,-93 3.05,-11.37 9.07,-25.03 6.95,-37 -2.66,-14.96 -16.44,-18.99 -29.58,-19 -27.08,-0.02 -102.51,11.83 -92.31,-37 8.46,-40.46 72.93,-18.31 100.29,-25.026 13,-3.192 22.86,-13.054 26.12,-26.11 1.57,-6.243 -0.3,-15.487 5.18,-20.061 8.06,-6.719 30.98,-4.085 41.72,-6.987 25.54,-6.902 42.7,-33.122 47.63,-57.816 8,-40.063 -26.34,-86.495 -67.63,-89.856 -15.31,-1.246 -30.64,-1.144 -46,-1.144 -5.14,0 -14.1,1.698 -18.32,-1.822 -8.54,-7.121 -13.9,-24.651 -20.03,-34.178 -16.3,-25.339 -33.23,-49.865 -53.79,-72 C 1354.6,559.286 1216.12,485.02 1088,499.438 Z"
       id="path2" />
    <path
       style="display:inline;fill:#ffffff;fill-opacity:1;stroke:none"
       d="m 1079,599.446 c -62.41,7.718 -116.624,23.43 -171,55.759 -15.503,9.217 -60.8,49.122 -19,59.87 12.362,3.178 23.004,-6.488 32,-13.41 16.023,-12.33 33.708,-21.827 52,-30.334 52.51,-24.422 109.81,-31.464 167,-26.114 41.54,3.886 82.11,19.284 118,39.93 16.11,9.267 35.8,33.876 56,29.103 14.56,-3.438 20.07,-22.209 12.59,-34.25 -10.47,-16.863 -34.89,-27.287 -51.59,-36.882 -56.08,-32.231 -130.97,-51.715 -196,-43.672 m 11,85.992 c -49.79,5.618 -95.901,15.364 -139,42.634 -16.193,10.246 -46.181,45.226 -10,54.371 19.903,5.031 50.781,-25.476 69,-33.557 39.59,-17.558 83.31,-21.548 126,-16.653 28.12,3.225 56.85,13.389 81,27.984 13.36,8.076 27.67,26.125 45,22.278 43.31,-9.616 -0.71,-49.988 -17,-59.642 -44.72,-26.508 -102.61,-43.326 -155,-37.415 m 0,84 c -38.39,4.332 -77.15,14.19 -107.981,39.046 -16.678,13.444 -24.644,44.526 3.981,50.643 16.71,3.57 34.21,-19.101 48,-26.107 28.54,-14.502 58.26,-20.101 90,-15.835 20.43,2.745 41.01,10.996 58,22.503 10.86,7.358 22.5,21.589 37,18.845 33.37,-6.317 15.65,-41.584 -2,-53.525 -36.09,-24.418 -82.97,-40.537 -127,-35.57 m 310,48 c -10.77,1.212 -21.81,0.152 -32,4.583 -48.66,21.157 -61.25,86.503 -78.11,131.979 -11.28,30.433 -19.01,68.71 -55.89,76.28 -21.14,4.35 -46.42,0.72 -68,0.72 h -137 c -23.79,0 -56.499,6.09 -77,-8.16 C 933.282,1009.83 926.957,987.204 919.179,967 900.197,917.696 886.982,843.678 833,821.885 816.189,815.098 795.795,818 778,818 c -16.309,0 -44.372,-5.36 -57.761,5.798 -15.951,13.293 -10.534,40.664 7.761,48.778 32.987,14.629 79.733,-17.159 102.189,24.424 18.166,33.64 29.907,73.265 43.541,109 8.668,22.72 15.703,45.99 34.27,62.84 26.925,24.44 61.372,21.16 95,21.16 h 173 c 28.61,0 62.31,4.81 90,-3.36 33.03,-9.74 48.01,-37.79 59.44,-67.64 15,-39.176 26.3,-91.45 49.97,-125.993 25.19,-36.758 71.83,-3.785 102.59,-23.251 17.25,-10.918 17.54,-38.115 -1,-48.112 -18.86,-10.168 -56.21,-6.546 -77,-4.206 m -311,52.003 c -28.4,3.353 -56.04,14.341 -75.91,35.562 -11.73,12.525 -10.94,35.372 5.95,43.401 16.72,7.941 28.01,-5.624 40.96,-13.936 13.6,-8.729 30.62,-14.5 47,-13.331 25.99,1.855 48.55,32.444 72,28.546 29.21,-4.853 19.98,-37.986 5,-51.458 -25.43,-22.872 -61.26,-32.769 -95,-28.784 z"
       id="path3" />
    <path
       style="display:inline;fill:#ffffff;fill-opacity:1;stroke:none"
       d="m 1220,1121.44 c -15.1,1.77 -28.53,11 -43,12.4 -48,4.64 -98.76,0.28 -147,0.16 -30.633,-0.08 -49.428,-20.07 -82,-5.46 -63.409,28.46 -44.367,127.38 24,132.32 31.97,2.31 62.8,-15.6 72.99,-46.86 2.17,-6.65 1.02,-32.56 4.84,-35.74 4.7,-3.91 19.28,-1.26 25.17,-1.26 23.97,0 50.2,-3.05 73.93,0.15 7.45,1 6.54,35.79 10.03,43.85 12.43,28.66 44.75,44.53 75.04,39.22 83.57,-14.64 71.16,-148.75 -14,-138.78 z"
       id="path5" />
  </g>
</svg>
