<?xml version="1.0" encoding="UTF-8" standalone="no"?>
<svg
   width="952.59082"
   height="266.60486"
   version="1.1"
   id="svg34"
   sodipodi:docname="bargify-logo.svg"
   inkscape:version="1.3.2 (091e20e, 2023-11-25, custom)"
   xmlns:inkscape="http://www.inkscape.org/namespaces/inkscape"
   xmlns:sodipodi="http://sodipodi.sourceforge.net/DTD/sodipodi-0.dtd"
   xmlns="http://www.w3.org/2000/svg"
   xmlns:svg="http://www.w3.org/2000/svg">
  <defs
     id="defs34" />
  <sodipodi:namedview
     id="namedview34"
     pagecolor="#ffffff"
     bordercolor="#000000"
     borderopacity="0.25"
     inkscape:showpageshadow="2"
     inkscape:pageopacity="0.0"
     inkscape:pagecheckerboard="0"
     inkscape:deskcolor="#d1d1d1"
     inkscape:zoom="0.53318182"
     inkscape:cx="723.0179"
     inkscape:cy="974.3393"
     inkscape:window-width="2560"
     inkscape:window-height="1369"
     inkscape:window-x="1912"
     inkscape:window-y="-8"
     inkscape:window-maximized="1"
     inkscape:current-layer="svg34" />
  <g
     id="g35"
     transform="translate(-615.27284,-1481.2771)"
     inkscape:export-filename="g35.svg"
     inkscape:export-xdpi="96"
     inkscape:export-ydpi="96">
    <path
       style="fill:#faa567;fill-opacity:1;stroke:none"
       d="m 1247.8883,1550.48 c -16.31,2.49 -12,18.68 -12,31.52 0,20.92 0.98,42.11 -0.08,63 -0.54,10.64 -3.23,24.76 1.02,34.95 2.94,7.05 12.37,8.42 19.06,7.58 18.4,-2.28 16,-16.85 16,-31.53 v -74 c 0,-7.35 2.66,-21.44 -2.04,-27.58 -4.19,-5.47 -15.92,-4.86 -21.96,-3.94 z"
       id="path25"
       inkscape:export-filename="..\..\..\laragon\www\watcher\client\src\assets\images\dragify-logotype.svg"
       inkscape:export-xdpi="96"
       inkscape:export-ydpi="96" />
    <path
       style="fill:#faa567;fill-opacity:1;stroke:none"
       d="m 1379.1288,1481.44 c -21.22,2.49 -44.54,10.4 -50.92,33.56 -2.55,9.27 1.08,22.44 -2.9,30.72 -5.37,11.15 -19.56,0.84 -18.04,21.28 1.26,16.95 18.8,6.27 18.86,22 0.08,21 0,42 0,63 0,8.15 -2.25,20.45 1.72,27.84 4.12,7.66 14.76,7.82 22.28,6.82 15.04,-2.01 13,-15.97 13,-27.66 v -57 c 0,-5.19 -2.18,-16.96 1.26,-21.18 7.64,-9.36 32.66,7.16 37.41,-7.87 12.5,-39.6 -41.46,-8.78 -38.44,-37.95 3.47,-33.58 40.27,-4.53 56.5,-18 27.39,-22.73 -24.61,-37.45 -40.73,-35.56 z"
       id="path7" />
    <path
       id="path9"
       style="fill:#faa567;fill-opacity:1;stroke:none"
       d="m 637.3552,1492.9062 c -5.20799,0.021 -10.2166,0.4608 -14.54297,1.8145 -9.95799,3.12 -7.01172,17.2093 -7.01172,25.2793 v 79 59 c 0,6.72 -2.08803,17.9197 2.04297,23.6797 5.18099,7.21 20.25404,4.3203 27.95703,4.3203 27.00697,0 59.99703,5.0307 86,-3.2793 30.13897,-9.64 50.33137,-45.2207 34.02539,-74.7207 -3.496,-6.32 -21.19131,-16.3894 -21.94531,-21.1094 -0.632,-3.96 11.09881,-12.2706 13.38281,-15.8906 6.46499,-10.25 8.15403,-23.16 5.83203,-35 -9.41799,-47.99 -63.64696,-42 -100.29492,-42 -7.53437,0 -16.76534,-1.1284 -25.44531,-1.0938 z m 56.21875,37.4727 c 6.12962,-0.031 12.16616,0.4955 17.22265,2.7305 13.59899,6 15.91927,23.5 4.73829,33.25 -8.381,7.31 -47.82244,10.9508 -57.23243,4.3808 -4.53599,-3.17 -4.98168,-34.9704 -0.67968,-38.4804 3.78299,-3.09 13.56073,-1.2598 18.17773,-1.2598 5.42199,0 11.64382,-0.5898 17.77344,-0.6211 z m -13.41211,74.3789 c 14.75365,-0.132 32.01915,2.2707 38.61914,6.252 13.23299,7.98 15.1877,27.1396 1.01172,35.3496 -12.42699,7.2 -32.1492,3.6406 -45.99219,3.6406 -4.225,0 -12.69374,1.5802 -16.17773,-1.2598 -4.653,-3.8 -3.88303,-38.0707 1.54296,-40.8007 4.19588,-2.1113 12.14391,-3.1025 20.9961,-3.1817 z" />
    <path
       style="fill:#faa567;fill-opacity:1;stroke:none"
       d="m 1249.8883,1497.49 c -26.18,4.14 -18.41,42.59 8,38.19 24.9,-4.14 17.22,-42.18 -8,-38.19 z"
       id="path11" />
    <path
       id="path17"
       style="fill:#faa567;fill-opacity:1;stroke:none"
       d="m 912.49529,1548.3926 c -9.19939,-0.1807 -19.15401,6.708 -20.93945,14.6074 -24.09598,-25.51 -66.03311,-14.57 -84.62109,12 -12.82999,18.34 -14.6992,45.6 -9.53321,67 7.232,29.96 37.24733,48.8306 67.1543,44.6406 8.56499,-1.2 16.23209,-8.3197 24.08008,-9.2597 3.19799,-0.39 5.52883,5.7791 8.04883,7.3691 6.38699,4.05 21.12758,3.9297 26.26757,-2.0703 5.632,-6.59 2.60352,-22.5097 2.60352,-30.6797 v -80 c 0,-5.1 1.72073,-14.2402 -1.82227,-18.4102 -3.03093,-3.5718 -7.05673,-5.1151 -11.23828,-5.1972 z m -53.34179,35.5371 c 36.49441,-0.9012 43.367,62.1372 4.40234,68.5898 -37.14096,6.15 -44.96097,-61.3404 -10,-67.9804 1.93617,-0.368 3.80285,-0.5651 5.59766,-0.6094 z" />
    <path
       style="fill:#faa567;fill-opacity:1;stroke:none"
       d="m 1000,1565 c 1.97,-16.22 -25.316,-22.68 -31.178,-8.89 -3.772,8.87 -0.822,24.31 -0.822,33.89 0,26.77 -6.157,62.09 0.526,87.96 2.884,11.16 23.661,12.13 31.127,5.45 6.707,-6 4.687,-19.43 3.787,-27.41 -1.9,-16.9 -2.66,-38.52 1.77,-55 2.06,-7.67 10.46,-16.83 18.79,-17.45 5.59,-0.42 12.4,3.78 16.54,-1.83 11.31,-15.36 9.93,-35.3 -12.54,-32.38 -11.9,1.55 -18.92,8.79 -28,15.66 z"
       id="path19" />
    <path
       id="path21"
       style="fill:#faa567;fill-opacity:1;stroke:none"
       d="m 1185.0571,1548.8164 c -8.9345,0.106 -19.2676,5.5899 -19.9863,13.1836 -10.76,-6.55 -18.58,-12.8302 -32,-12.9902 -91.5999,-1.1 -85.6299,143.2706 3,136.8906 9.83,-0.7 18.66,-6.1604 27,-10.9004 -1.03,29.01 -26.07,45.6294 -53,33.1895 -11.14,-5.14 -34.0692,-16.8595 -40.1992,1.8105 -6.61,20.18 18.6692,32.1995 34.1992,35.4395 31.8,6.6299 67.86,0.7005 85.5,-29.4395 18.15,-31 8.5,-85.2 8.5,-120 0,-11.29 3.7097,-30.4794 -0.8203,-40.8594 -1.9763,-4.515 -6.8326,-6.3878 -12.1934,-6.3242 z m -53.8828,34.9297 c 34.0333,-0.2569 45.2465,58.7129 10.8965,66.6348 -39.16,9.02 -55.55,-56.9718 -18,-65.7618 2.465,-0.5762 4.8346,-0.8559 7.1035,-0.873 z" />
    <path
       style="fill:#faa567;fill-opacity:1;stroke:none"
       d="m 1496.1576,1638 c -1.37,-19.35 -15.39,-41.96 -22.6,-60 -3.15,-7.88 -5.46,-18.16 -11.28,-24.55 -5.84,-6.41 -25.07,-6.91 -31.84,-1.55 -9.16,7.26 2.17,24.46 5.6,32.1 13.28,29.55 26.43,59.23 39.21,89 5.29,12.32 1.71,28.46 -13.09,32.65 -8.37,2.38 -19.35,-0.98 -24.09,8.4 -11.96,23.65 16.77,34.68 35.09,29.2 26.74,-8.01 34.96,-33.62 43.72,-57.25 10.29,-27.75 23.27,-54.52 34.28,-82 5.15,-12.86 18.52,-32.75 16.5,-46.98 -1.66,-11.63 -26.77,-9.95 -32.99,-3.66 -21.06,21.29 -18.2,62.35 -38.51,84.64 z"
       id="path23" />
  </g>
</svg>
