<?xml version="1.0" encoding="UTF-8" standalone="no"?>
<svg
   data-name="Layer 1"
   width="632.55402"
   height="570.48199"
   viewBox="0 0 632.55411 570.48201"
   version="1.1"
   id="svg18"
   sodipodi:docname="receipt.svg"
   inkscape:version="1.3.2 (091e20e, 2023-11-25, custom)"
   xmlns:inkscape="http://www.inkscape.org/namespaces/inkscape"
   xmlns:sodipodi="http://sodipodi.sourceforge.net/DTD/sodipodi-0.dtd"
   xmlns="http://www.w3.org/2000/svg"
   xmlns:svg="http://www.w3.org/2000/svg">
  <defs
     id="defs18" />
  <sodipodi:namedview
     id="namedview18"
     pagecolor="#ffffff"
     bordercolor="#000000"
     borderopacity="0.25"
     inkscape:showpageshadow="2"
     inkscape:pageopacity="0.0"
     inkscape:pagecheckerboard="0"
     inkscape:deskcolor="#d1d1d1"
     inkscape:zoom="1.0263363"
     inkscape:cx="268.91771"
     inkscape:cy="273.30223"
     inkscape:window-width="2560"
     inkscape:window-height="1369"
     inkscape:window-x="1912"
     inkscape:window-y="-8"
     inkscape:window-maximized="1"
     inkscape:current-layer="svg18" />
  <path
     d="m 3.35154,120.074 a 4.59436,4.59436 0 0 0 -3.18166,5.65638 l 76.71619,273.97819 a 4.59431,4.59431 0 0 0 5.65637,3.1816 l 282.81481,-79.19052 a 4.59437,4.59437 0 0 0 3.18162,-5.65631 L 291.82268,44.06513 a 4.59434,4.59434 0 0 0 -5.65633,-3.18168 z"
     fill="#e6e6e6"
     id="path1" />
  <path
     d="M 86.09652,389.95286 355.60126,314.48928 282.61195,53.82097 13.10721,129.28455 Z"
     fill="#ffffff"
     id="path2" />
  <path
     d="m 48.73927,164.09127 c -1.79809,0.50348 -2.53942,3.49029 -1.65249,6.6578 0.88693,3.16751 3.07152,5.335 4.86961,4.83156 l 122.91712,-34.41782 c 1.79808,-0.50348 2.53941,-3.4903 1.65248,-6.6578 -0.88693,-3.1675 -3.07151,-5.335 -4.8696,-4.83156 z"
     fill="#e6e6e6"
     id="path3" />
  <path
     d="m 58.63808,199.44313 c -1.79808,0.50348 -2.53941,3.49029 -1.65248,6.6578 0.88693,3.16751 3.07151,5.335 4.8696,4.83156 l 122.91712,-34.41782 c 1.79809,-0.50348 2.53942,-3.49029 1.65249,-6.6578 -0.88693,-3.16751 -3.07152,-5.335 -4.86961,-4.83156 z"
     fill="#e6e6e6"
     id="path4" />
  <path
     d="m 68.4228,234.38749 c -1.79809,0.50348 -2.53942,3.49026 -1.65249,6.6578 0.88693,3.16754 3.07152,5.335 4.86961,4.83156 l 122.91712,-34.41782 c 1.79808,-0.50348 2.53942,-3.49027 1.65248,-6.6578 -0.88694,-3.16753 -3.07151,-5.335 -4.8696,-4.83156 z"
     fill="#e6e6e6"
     id="path5" />
  <path
     d="m 78.32161,269.73931 c -1.79809,0.50348 -2.53943,3.49027 -1.65249,6.6578 0.88694,3.16753 3.07151,5.335 4.8696,4.83156 l 122.91712,-34.41782 c 1.79809,-0.50348 2.53943,-3.49026 1.65249,-6.6578 -0.88694,-3.16754 -3.07152,-5.335 -4.86961,-4.83156 z"
     fill="#e6e6e6"
     id="path6" />
  <path
     d="m 234.03551,112.61448 a 5.96564,5.96564 0 1 0 3.21712,11.48936 l 22.97873,-6.43423 a 5.9656409,5.9656409 0 0 0 -3.21712,-11.48937 z"
     fill="#e6e6e6"
     id="path7" />
  <path
     d="m 243.74246,147.28113 a 5.96564,5.96564 0 1 0 3.21712,11.48936 l 22.97872,-6.43423 a 5.9656409,5.9656409 0 0 0 -3.21712,-11.48937 z"
     fill="#e6e6e6"
     id="path8" />
  <path
     d="m 253.4494,181.94771 a 5.9656347,5.9656347 0 1 0 3.21711,11.48936 l 22.97873,-6.43423 a 5.9656409,5.9656409 0 0 0 -3.21712,-11.48937 z"
     fill="#e6e6e6"
     id="path9" />
  <path
     d="m 263.15634,216.61434 a 5.96564,5.96564 0 0 0 3.21712,11.48936 l 22.97873,-6.43424 a 5.96564,5.96564 0 0 0 -3.21712,-11.48936 z"
     fill="#e6e6e6"
     id="path10" />
  <path
     d="m 272.43045,276.70347 a 7.60151,7.60151 0 1 0 4.0993,14.63992 l 29.27976,-8.19858 a 7.6015037,7.6015037 0 0 0 -4.09929,-14.63992 v 0 z"
     fill="#faa567"
     id="path11" />
  <rect
     x="-0.27977911"
     y="319.56604"
     width="225"
     height="2"
     transform="rotate(-15.64269)"
     fill="#e6e6e6"
     id="rect11" />
  <polygon
     points="503.999,439.047 520.202,506.072 502.825,510.273 478.352,445.247 "
     fill="#a0616a"
     id="polygon11" />
  <path
     d="m 472.84525,535.11426 -0.11768,-0.48584 a 22.23326,22.23326 0 0 1 16.36792,-26.80518 l 33.99854,-8.21924 5.33618,22.07276 z"
     fill="#2f2e41"
     id="path12" />
  <polygon
     points="443.279,448.954 443.276,517.91 425.399,517.909 416.894,448.953 "
     fill="#a0616a"
     id="polygon12" />
  <ellipse
     cx="457.03082"
     cy="526.43433"
     rx="172.58646"
     ry="39.295227"
     fill="#38d39f"
     opacity="0.1"
     data-v-fa254d35=""
     id="ellipse18"
     style="fill:#faa567;fill-opacity:1;stroke-width:0.736599" />
  <path
     d="m 447.60623,535.01074 -57.18628,-0.002 v -0.5 a 22.20823,22.20823 0 0 1 22.20826,-22.20752 h 10e-4 l 34.978,0.001 z"
     fill="#2f2e41"
     id="path13" />
  <path
     d="m 416.87961,490.99032 -17.35806,-206.87128 71.856,-13.245 0.28375,-0.0513 21.03174,13.5199 -7.32031,76.13381 33.70434,118.69857 -29.10218,7.65853 -33.75812,-110.08599 -7.72546,-33.47646 -3.9592,43.50036 2.93923,107.27764 z"
     fill="#2f2e41"
     id="path14" />
  <path
     d="m 397.29612,288.81128 -0.19011,-0.24067 24.83039,-186.9574 0.0324,-0.24493 0.1748,-0.17516 c 0.366,-0.366 9.06584,-8.96295 18.01419,-8.96295 1.29375,0 2.52377,-0.0328 3.70359,-0.0627 6.84753,-0.178 12.25677,-0.32041 18.68527,6.10916 6.54991,6.54919 27.91987,30.46463 27.91987,63.21913 0,31.70356 2.88689,130.22765 2.91609,131.21879 l 0.0409,1.39129 -1.167,-0.759 c -0.288,-0.18513 -29.03062,-18.487 -53.13652,-1.47389 -7.53321,5.31739 -14.30064,7.18147 -20.08725,7.18147 -13.46793,-10e-6 -21.62167,-10.0965 -21.73666,-10.24318 z"
     fill="#faa567"
     id="path15" />
  <circle
     cx="361.11777"
     cy="249.1199"
     r="35.815479"
     transform="rotate(-28.66321)"
     fill="#a0616a"
     id="circle15" />
  <path
     d="m 381.52986,328.9898 a 14.66358,14.66358 0 0 0 0.85079,-22.46873 l 20.33939,-47.976 -26.63143,4.9014 -15.2318,44.80741 a 14.743,14.743 0 0 0 20.673,20.73592 z"
     fill="#a0616a"
     id="path16" />
  <path
     d="m 361.87936,291.67076 6.54955,-13.82749 a 2.693,2.693 0 0 1 -0.96728,-1.00253 c -6.11913,-10.60487 30.84271,-98.6722 33.30632,-104.51364 -0.3756,-3.17705 -4.25577,-36.84436 -1.41871,-48.19259 3.33974,-13.359 10.19724,-19.58491 22.92964,-20.81814 14.04146,-1.31867 17.82978,17.74932 17.86609,17.943 l 0.0128,49.02 -16.11487,56.42786 -36.7518,74.97321 z"
     fill="#faa567"
     id="path17" />
  <path
     d="m 440.93674,58.87092 c -4.29338,0.55862 -7.532,-3.83417 -9.03411,-7.89482 -1.50211,-4.06065 -2.64661,-8.78808 -6.37942,-10.98156 -5.09979,-2.99674 -11.62474,0.60754 -17.45662,-0.38118 -6.586,-1.11657 -10.86811,-8.09643 -11.20372,-14.768 -0.33561,-6.67157 2.31935,-13.08815 4.92436,-19.23924 l 0.90945,7.64441 A 15.15938,15.15938 0 0 1 409.32121,-4e-5 l -1.17219,11.217 c 0.735,-6.28405 7.50492,-11.15334 13.69633,-9.85109 l -0.1846,6.6835 c 7.60682,-0.90452 15.28012,-1.81032 22.90947,-1.12121 7.62935,0.68911 15.312,3.103 21.09438,8.1275 8.64957,7.51589 11.80857,19.89169 10.748,31.30129 -1.06057,11.4096 -5.77042,22.12808 -10.67915,32.48221 -1.23506,2.60513 -2.9433,5.54483 -5.80719,5.87668 -2.57323,0.29818 -4.92778,-1.85286 -5.72771,-4.31671 -0.79993,-2.46385 -0.4096,-5.14055 0.0695,-7.68631 0.72371,-3.84576 1.636,-7.77663 0.95558,-11.63028 -0.68042,-3.85365 -3.45273,-7.66178 -7.33739,-8.13406 -3.88466,-0.47228 -7.85964,3.9681 -5.992,7.4069 z"
     fill="#2f2e41"
     id="path18" />
</svg>
